<?xml version="1.0" encoding="UTF-8" standalone="no"?>
<!-- Created with Inkscape (http://www.inkscape.org/) -->

<svg
   xmlns:dc="http://purl.org/dc/elements/1.1/"
   xmlns:cc="http://creativecommons.org/ns#"
   xmlns:rdf="http://www.w3.org/1999/02/22-rdf-syntax-ns#"
   xmlns:svg="http://www.w3.org/2000/svg"
   xmlns="http://www.w3.org/2000/svg"
   xmlns:xlink="http://www.w3.org/1999/xlink"
   xmlns:sodipodi="http://sodipodi.sourceforge.net/DTD/sodipodi-0.dtd"
   xmlns:inkscape="http://www.inkscape.org/namespaces/inkscape"
   width="744.09448"
   height="1052.3622"
   id="svg2"
   version="1.1"
   inkscape:version="0.48.4 r9939"
   sodipodi:docname="exposure.svg">
  <defs
     id="defs4">
    <inkscape:path-effect
       is_visible="true"
       id="path-effect3990"
       effect="spiro" />
    <inkscape:path-effect
       effect="spiro"
       id="path-effect3988"
       is_visible="true" />
    <inkscape:path-effect
       is_visible="true"
       id="path-effect3986"
       effect="spiro" />
    <inkscape:path-effect
       effect="spiro"
       id="path-effect3984"
       is_visible="true" />
    <inkscape:path-effect
       is_visible="true"
       id="path-effect3982"
       effect="spiro" />
    <inkscape:path-effect
       effect="spiro"
       id="path-effect3980"
       is_visible="true" />
    <inkscape:path-effect
       is_visible="true"
       id="path-effect3978"
       effect="spiro" />
    <inkscape:path-effect
       effect="spiro"
       id="path-effect3976"
       is_visible="true" />
    <inkscape:path-effect
       effect="spiro"
       id="path-effect3932"
       is_visible="true" />
    <inkscape:path-effect
       is_visible="true"
       id="path-effect3929"
       effect="spiro" />
    <inkscape:path-effect
       effect="spiro"
       id="path-effect3926"
       is_visible="true" />
    <inkscape:path-effect
       is_visible="true"
       id="path-effect3923"
       effect="spiro" />
    <inkscape:path-effect
       effect="spiro"
       id="path-effect3892"
       is_visible="true" />
    <inkscape:path-effect
       is_visible="true"
       id="path-effect3890"
       effect="spiro" />
    <inkscape:path-effect
       effect="spiro"
       id="path-effect3888"
       is_visible="true" />
    <inkscape:path-effect
       is_visible="true"
       id="path-effect3886"
       effect="spiro" />
    <inkscape:path-effect
       is_visible="true"
       id="path-effect3790"
       effect="spiro" />
    <inkscape:path-effect
       effect="spiro"
       id="path-effect3786"
       is_visible="true" />
    <inkscape:path-effect
       is_visible="true"
       id="path-effect3782"
       effect="spiro" />
    <inkscape:path-effect
       effect="spiro"
       id="path-effect3010"
       is_visible="true" />
  </defs>
  <sodipodi:namedview
     id="base"
     pagecolor="#ffffff"
     bordercolor="#666666"
     borderopacity="1.0"
     inkscape:pageopacity="0.0"
     inkscape:pageshadow="2"
     inkscape:zoom="1"
     inkscape:cx="382.13695"
     inkscape:cy="1008.7942"
     inkscape:document-units="px"
     inkscape:current-layer="g3792"
     showgrid="false"
     inkscape:window-width="1268"
     inkscape:window-height="751"
     inkscape:window-x="0"
     inkscape:window-y="21"
     inkscape:window-maximized="1" />
  <metadata
     id="metadata7">
    <rdf:RDF>
      <cc:Work
         rdf:about="">
        <dc:format>image/svg+xml</dc:format>
        <dc:type
           rdf:resource="http://purl.org/dc/dcmitype/StillImage" />
        <dc:title></dc:title>
      </cc:Work>
    </rdf:RDF>
  </metadata>
  <g
     inkscape:label="Layer 1"
     inkscape:groupmode="layer"
     id="layer1">
    <text
       xml:space="preserve"
       style="font-size:16px;font-style:normal;font-variant:normal;font-weight:normal;font-stretch:normal;line-height:125%;letter-spacing:0px;word-spacing:0px;fill:#000000;fill-opacity:1;stroke:none;font-family:Old Standard;-inkscape-font-specification:Old Standard"
       x="38.37775"
       y="31.505039"
       id="text2985"
       sodipodi:linespacing="125%"><tspan
         sodipodi:role="line"
         id="tspan2987"
         x="38.37775"
         y="31.505039">1    2    3    4    5    6    7    8    9   10   12   14   15   17   20   25   30   35   40   45   50   55   60</tspan></text>
    <g
       id="g3792"
       inkscape:tile-cx="43.350454"
       inkscape:tile-cy="37.373227"
       inkscape:tile-w="23.359953"
       inkscape:tile-h="12.000021"
       inkscape:tile-x0="31.670478"
       inkscape:tile-y0="31.018886"
       transform="translate(0,5.0657181)">
      <path
         sodipodi:nodetypes="cc"
         inkscape:connector-curvature="0"
         inkscape:original-d="m 31.670478,33.018886 23.359953,0"
         inkscape:path-effect="#path-effect3990"
         id="path3008"
         d="m 31.670478,33.018886 23.359953,0"
         style="fill:none;stroke:#000000;stroke-width:0.35433069;stroke-linecap:butt;stroke-linejoin:miter;stroke-miterlimit:4;stroke-opacity:1;stroke-dasharray:none" />
      <path
         style="fill:none;stroke:#000000;stroke-width:0.70866138;stroke-linecap:butt;stroke-linejoin:miter;stroke-miterlimit:4;stroke-opacity:1;stroke-dasharray:none"
         d="m 31.670478,36.605515 23.359953,0"
         id="path3780"
         inkscape:path-effect="#path-effect3988"
         inkscape:original-d="m 31.670478,36.605515 23.359953,0"
         inkscape:connector-curvature="0"
         sodipodi:nodetypes="cc" />
      <path
         sodipodi:nodetypes="cc"
         inkscape:connector-curvature="0"
         inkscape:original-d="m 31.670478,40.546452 23.359953,0"
         inkscape:path-effect="#path-effect3986"
         id="path3784"
         d="m 31.670478,40.546452 23.359953,0"
         style="fill:none;stroke:#000000;stroke-width:1.0629921;stroke-linecap:butt;stroke-linejoin:miter;stroke-miterlimit:4;stroke-opacity:1;stroke-dasharray:none" />
      <path
         style="fill:none;stroke:#000000;stroke-width:1.77165341;stroke-linecap:butt;stroke-linejoin:miter;stroke-miterlimit:4;stroke-opacity:1;stroke-dasharray:none"
         d="m 31.670478,45.018907 23.359953,0"
         id="path3788"
         inkscape:path-effect="#path-effect3984"
         inkscape:original-d="m 31.670478,45.018907 23.359953,0"
         inkscape:connector-curvature="0"
         sodipodi:nodetypes="cc" />
      <path
         style="fill:none;stroke:#000000;stroke-width:0.35433069;stroke-linecap:butt;stroke-linejoin:miter;stroke-miterlimit:4;stroke-opacity:1;stroke-dasharray:none"
         d="m 32.100613,69.769221 0,-23.359953"
         id="path3878"
         inkscape:path-effect="#path-effect3982"
         inkscape:original-d="m 32.100613,69.769221 0,-23.359953"
         inkscape:connector-curvature="0"
         sodipodi:nodetypes="cc" />
      <path
         sodipodi:nodetypes="cc"
         inkscape:connector-curvature="0"
         inkscape:original-d="m 35.687242,69.769221 0,-23.359953"
         inkscape:path-effect="#path-effect3980"
         id="path3880"
         d="m 35.687242,69.769221 0,-23.359953"
         style="fill:none;stroke:#000000;stroke-width:0.70866138;stroke-linecap:butt;stroke-linejoin:miter;stroke-miterlimit:4;stroke-opacity:1;stroke-dasharray:none" />
      <path
         style="fill:none;stroke:#000000;stroke-width:1.0629921;stroke-linecap:butt;stroke-linejoin:miter;stroke-miterlimit:4;stroke-opacity:1;stroke-dasharray:none"
         d="m 39.628179,69.769221 0,-23.359953"
         id="path3882"
         inkscape:path-effect="#path-effect3978"
         inkscape:original-d="m 39.628179,69.769221 0,-23.359953"
         inkscape:connector-curvature="0"
         sodipodi:nodetypes="cc" />
      <path
         sodipodi:nodetypes="cc"
         inkscape:connector-curvature="0"
         inkscape:original-d="m 44.100634,69.769221 0,-23.359953"
         inkscape:path-effect="#path-effect3976"
         id="path3884"
         d="m 44.100634,69.769221 0,-23.359953"
         style="fill:none;stroke:#000000;stroke-width:1.77165341;stroke-linecap:butt;stroke-linejoin:miter;stroke-miterlimit:4;stroke-opacity:1;stroke-dasharray:none" />
      <path
         style="fill:#000000;fill-opacity:1;fill-rule:nonzero;stroke:none"
         d="m 45.5625,46.340532 0,23.40625 9.25,0 0,-23.40625 -9.25,0 z m 4.625,0.65625 c 0.09785,0 0.1875,0.0584 0.1875,0.15625 0,0.09785 -0.08965,0.1875 -0.1875,0.1875 -0.09785,0 -0.1875,-0.08965 -0.1875,-0.1875 0,-0.09785 0.08965,-0.15625 0.1875,-0.15625 z m 0,2.5 c 0.293537,0 0.53125,0.237713 0.53125,0.53125 0,0.293537 -0.237713,0.53125 -0.53125,0.53125 -0.293537,0 -0.53125,-0.237713 -0.53125,-0.53125 0,-0.293537 0.237713,-0.53125 0.53125,-0.53125 z m 0,3.21875 c 0.489229,0 0.875,0.385771 0.875,0.875 0,0.489229 -0.385771,0.90625 -0.875,0.90625 -0.489229,0 -0.875,-0.417021 -0.875,-0.90625 0,-0.489229 0.385771,-0.875 0.875,-0.875 z m 0,3.9375 c 0.880612,0 1.59375,0.713138 1.59375,1.59375 0,0.880611 -0.713138,1.59375 -1.59375,1.59375 -0.880612,0 -1.59375,-0.713139 -1.59375,-1.59375 0,-0.880612 0.713138,-1.59375 1.59375,-1.59375 z m 0,5.34375 c 1.956915,0 3.53125,1.574335 3.53125,3.53125 0,1.956915 -1.574335,3.5625 -3.53125,3.5625 -1.956914,0 -3.53125,-1.605585 -3.53125,-3.5625 0,-1.956915 1.574336,-3.53125 3.53125,-3.53125 z"
         id="rect3934"
         inkscape:connector-curvature="0" />
      <path
         transform="matrix(0.15987838,0,0,0.15987838,31.732685,23.430512)"
         d="m 24.800911,50.774723 a 1.1081258,1.1081258 0 1 1 -2.216252,0 1.1081258,1.1081258 0 1 1 2.216252,0 z"
         sodipodi:ry="1.1081258"
         sodipodi:rx="1.1081258"
         sodipodi:cy="50.774723"
         sodipodi:cx="23.692785"
         id="path3950"
         style="fill:#000000;fill-opacity:1;fill-rule:nonzero;stroke:none"
         sodipodi:type="arc" />
      <path
         transform="matrix(0.33574458,0,0,0.33574458,18.725373,16.249721)"
         d="m 51.607005,54.099098 a 1.5830369,1.5830369 0 1 1 -3.166074,0 1.5830369,1.5830369 0 1 1 3.166074,0 z"
         sodipodi:ry="1.5830369"
         sodipodi:rx="1.5830369"
         sodipodi:cy="54.099098"
         sodipodi:cx="50.023968"
         id="path3952"
         style="fill:#000000;fill-opacity:1;fill-rule:nonzero;stroke:none"
         sodipodi:type="arc" />
      <path
         transform="matrix(0.5595743,0,0,0.5595743,7.5285226,4.7025107)"
         d="m 51.607005,59.481426 a 1.5830369,1.5830369 0 1 1 -3.166074,0 1.5830369,1.5830369 0 1 1 3.166074,0 z"
         sodipodi:ry="1.5830369"
         sodipodi:rx="1.5830369"
         sodipodi:cy="59.481426"
         sodipodi:cx="50.023968"
         id="path3954"
         style="fill:#000000;fill-opacity:1;fill-rule:nonzero;stroke:none"
         sodipodi:type="arc" />
      <path
         transform="matrix(0.86334321,0,0,0.86334321,-8.3505571,-13.877464)"
         d="m 52.662363,65.444199 a 1.8468764,1.8468764 0 1 1 -3.693752,0 1.8468764,1.8468764 0 1 1 3.693752,0 z"
         sodipodi:ry="1.8468764"
         sodipodi:rx="1.8468764"
         sodipodi:cy="65.444199"
         sodipodi:cx="50.815487"
         id="path3956"
         style="fill:#000000;fill-opacity:1;fill-rule:nonzero;stroke:none"
         sodipodi:type="arc" />
      <path
         transform="matrix(1.3429783,0,0,1.3429783,-32.936044,-46.122374)"
         d="m 53.612184,71.512505 a 2.6383948,2.6383948 0 1 1 -5.27679,0 2.6383948,2.6383948 0 1 1 5.27679,0 z"
         sodipodi:ry="2.6383948"
         sodipodi:rx="2.6383948"
         sodipodi:cy="71.512505"
         sodipodi:cx="50.973789"
         id="path3958"
         style="fill:#000000;fill-opacity:1;fill-rule:nonzero;stroke:none"
         sodipodi:type="arc" />
    </g>
    <use
       x="0"
       y="0"
       inkscape:tiled-clone-of="#g3792"
       xlink:href="#g3792"
       id="use3798"
       transform="translate(27.247286,1.4029994)"
       width="744.09448"
       height="1052.3622" />
    <use
       x="0"
       y="0"
       inkscape:tiled-clone-of="#g3792"
       xlink:href="#g3792"
       transform="translate(54.196074,1.7014997)"
       id="use3800"
       width="744.09448"
       height="1052.3622" />
    <use
       x="0"
       y="0"
       inkscape:tiled-clone-of="#g3792"
       xlink:href="#g3792"
       transform="translate(110.48164,1.4029994)"
       id="use3802"
       width="744.09448"
       height="1052.3622" />
    <use
       x="0"
       y="0"
       inkscape:tiled-clone-of="#g3792"
       xlink:href="#g3792"
       transform="translate(82.637358,1.7014997)"
       id="use3804"
       width="744.09448"
       height="1052.3622" />
    <use
       x="0"
       y="0"
       inkscape:tiled-clone-of="#g3792"
       xlink:href="#g3792"
       transform="translate(164.3792,1.1044991)"
       id="use3806"
       width="744.09448"
       height="1052.3622" />
    <use
       x="0"
       y="0"
       inkscape:tiled-clone-of="#g3792"
       xlink:href="#g3792"
       transform="translate(137.72894,1.1044991)"
       id="use3808"
       width="744.09448"
       height="1052.3622" />
    <use
       x="0"
       y="0"
       inkscape:tiled-clone-of="#g3792"
       xlink:href="#g3792"
       transform="translate(218.87378,1.1044991)"
       id="use3810"
       width="744.09448"
       height="1052.3622" />
    <use
       x="0"
       y="0"
       inkscape:tiled-clone-of="#g3792"
       xlink:href="#g3792"
       transform="translate(191.6265,1.1044991)"
       id="use3812"
       width="744.09448"
       height="1052.3622" />
    <use
       x="0"
       y="0"
       inkscape:tiled-clone-of="#g3792"
       xlink:href="#g3792"
       transform="translate(276.35335,-0.0895021)"
       id="use3814"
       width="744.09448"
       height="1052.3622" />
    <use
       x="0"
       y="0"
       inkscape:tiled-clone-of="#g3792"
       xlink:href="#g3792"
       transform="translate(246.12107,0.2089982)"
       id="use3816"
       width="744.09448"
       height="1052.3622" />
    <use
       x="0"
       y="0"
       inkscape:tiled-clone-of="#g3792"
       xlink:href="#g3792"
       transform="translate(339.50444,-0.0895021)"
       id="use3818"
       width="744.09448"
       height="1052.3622" />
    <use
       x="0"
       y="0"
       inkscape:tiled-clone-of="#g3792"
       xlink:href="#g3792"
       transform="translate(308.67516,-0.0895021)"
       id="use3820"
       width="744.09448"
       height="1052.3622" />
    <use
       x="0"
       y="0"
       inkscape:tiled-clone-of="#g3792"
       xlink:href="#g3792"
       transform="translate(404.44651,0.2089982)"
       id="use3822"
       width="744.09448"
       height="1052.3622" />
    <use
       x="0"
       y="0"
       inkscape:tiled-clone-of="#g3792"
       xlink:href="#g3792"
       transform="translate(372.12472,-0.0895021)"
       id="use3824"
       width="744.09448"
       height="1052.3622" />
    <use
       x="0"
       y="0"
       inkscape:tiled-clone-of="#g3792"
       xlink:href="#g3792"
       transform="translate(467.29911,-0.3880024)"
       id="use3826"
       width="744.09448"
       height="1052.3622" />
    <use
       x="0"
       y="0"
       inkscape:tiled-clone-of="#g3792"
       xlink:href="#g3792"
       transform="translate(435.87281,0.5074985)"
       id="use3828"
       width="744.09448"
       height="1052.3622" />
    <use
       x="0"
       y="0"
       inkscape:tiled-clone-of="#g3792"
       xlink:href="#g3792"
       transform="translate(531.94269,1.1044991)"
       id="use3830"
       width="744.09448"
       height="1052.3622" />
    <use
       x="0"
       y="0"
       inkscape:tiled-clone-of="#g3792"
       xlink:href="#g3792"
       transform="translate(499.0239,0.5074985)"
       id="use3832"
       width="744.09448"
       height="1052.3622" />
    <use
       x="0"
       y="0"
       inkscape:tiled-clone-of="#g3792"
       xlink:href="#g3792"
       transform="translate(564.26451,0.2089982)"
       id="use3834"
       width="744.09448"
       height="1052.3622" />
    <use
       x="0"
       y="0"
       xlink:href="#g3792"
       id="use3836"
       transform="translate(595.39226,0.2089982)"
       width="744.09448"
       height="1052.3622" />
    <use
       x="0"
       y="0"
       xlink:href="#g3792"
       id="use3838"
       transform="translate(627.11707,-0.0895021)"
       width="744.09448"
       height="1052.3622" />
    <use
       x="0"
       y="0"
       xlink:href="#g3792"
       id="use3840"
       transform="translate(660.33435,-0.0895021)"
       width="744.09448"
       height="1052.3622" />
  </g>
</svg>
